<?xml version="1.0" encoding="utf-8"?>
<!-- Generator: Adobe Illustrator 19.2.1, SVG Export Plug-In . SVG Version: 6.00 Build 0)  -->
<svg version="1.1" id="Layer_1" xmlns="http://www.w3.org/2000/svg" xmlns:xlink="http://www.w3.org/1999/xlink" x="0px" y="0px"
	 viewBox="0 0 251.9 161.5" style="enable-background:new 0 0 251.9 161.5;" xml:space="preserve">
<style type="text/css">
	.st0{fill:#EBF2F6;}
	.st1{fill:#D0D1CF;}
	.st2{fill:#FAFAFA;}
	.st3{fill:#FFFFFF;}
	.st4{fill:#C7C8C8;}
	.st5{fill:#EBEBEA;}
	.st6{fill:#CB5623;}
	.st7{fill:#E6B43E;}
	.st8{fill:#ACC833;}
	.st9{fill:#A44724;}
	.st10{fill:#9E8028;}
	.st11{fill:#6E8238;}
	.st12{fill:#224B72;}
	.st13{fill:#FFFFFF;stroke:#C7C8C8;stroke-width:0.35;stroke-miterlimit:10;}
</style>
<g>
	<g>
		<path class="st0" d="M251.5,161.1H0.4V3.4c0-1.6,1.3-3,3-3h245.1c1.7,0,3,1.4,3,3V161.1z"/>
		<path class="st1" d="M250.3,0.4c0.7,0,1.2,0.6,1.2,1.2v159.5H0.4V1.6C0.4,1,1,0.4,1.6,0.4H250.3 M250.3,0H1.6C0.7,0,0,0.7,0,1.6
			v159.5c0,0.2,0.2,0.4,0.4,0.4h251.1c0.2,0,0.4-0.2,0.4-0.4V1.6C251.9,0.7,251.2,0,250.3,0L250.3,0z"/>
	</g>
	<g>
		<rect x="54.2" y="11.8" class="st2" width="34.3" height="149.3"/>
		<rect x="88.5" y="11.8" class="st3" width="107.3" height="149.3"/>
		<rect x="54.2" y="48.1" class="st2" width="34.3" height="0.6"/>
		<rect x="54.2" y="68.9" class="st2" width="34.3" height="0.6"/>
		<rect x="195.7" y="11.8" class="st4" width="0.2" height="149.4"/>
		<rect x="88.4" y="11.8" class="st4" width="0.2" height="149.3"/>
		<rect x="54" y="11.8" class="st4" width="0.2" height="149.3"/>
		<path class="st5" d="M0.4,4.2V1.4c0-0.5,0.4-0.9,0.9-0.9h249.2c0.5,0,0.9,0.4,0.9,0.9v2.9H0.4z"/>
		<circle class="st6" cx="2.7" cy="2.4" r="1"/>
		<circle class="st7" cx="5.8" cy="2.4" r="1"/>
		<circle class="st8" cx="8.8" cy="2.4" r="1"/>
		<path class="st9" d="M2.3,2.9c-0.1,0-0.1,0-0.1-0.1c-0.1-0.1-0.1-0.2,0-0.3l0.8-0.8c0.1-0.1,0.2-0.1,0.3,0c0.1,0.1,0.1,0.2,0,0.3
			L2.4,2.9C2.4,2.9,2.3,2.9,2.3,2.9z"/>
		<path class="st9" d="M3,2.9c-0.1,0-0.1,0-0.1-0.1L2.1,2.1c-0.1-0.1-0.1-0.2,0-0.3s0.2-0.1,0.3,0l0.8,0.8c0.1,0.1,0.1,0.2,0,0.3
			C3.1,2.9,3.1,2.9,3,2.9z"/>
		<path class="st10" d="M6.3,2.6H5.2C5.1,2.6,5,2.5,5,2.4c0-0.1,0.1-0.2,0.2-0.2h1.1c0.1,0,0.2,0.1,0.2,0.2C6.5,2.5,6.4,2.6,6.3,2.6
			z"/>
		<path class="st11" d="M8.6,1.9C8.6,1.9,8.6,1.9,8.6,1.9l0.6-0.1c0,0,0.1,0,0.1,0.1v0.6c0,0,0,0-0.1,0L8.6,1.9z"/>
		<path class="st11" d="M9,2.8C9,2.8,9,2.9,9,2.8L8.4,2.9c0,0-0.1,0-0.1-0.1V2.2c0,0,0,0,0.1,0L9,2.8z"/>
		<rect x="0.4" y="4.2" class="st12" width="251.1" height="7.6"/>
		<path class="st13" d="M95.9,17.2h92.4c0.5,0,0.9,0.6,0.9,1.4v13.3c0,0.8-0.4,1.4-0.9,1.4H95.9c-0.5,0-0.9-0.6-0.9-1.4V18.6
			C95,17.8,95.4,17.2,95.9,17.2z"/>
		<path class="st13" d="M95.9,38.4h92.4c0.5,0,0.9,0.6,0.9,1.4v13.3c0,0.8-0.4,1.4-0.9,1.4H95.9c-0.5,0-0.9-0.6-0.9-1.4V39.8
			C95,39.1,95.4,38.4,95.9,38.4z"/>
		<path class="st13" d="M95.9,59.7h92.4c0.5,0,0.9,0.6,0.9,1.4v13.3c0,0.8-0.4,1.4-0.9,1.4H95.9c-0.5,0-0.9-0.6-0.9-1.4V61.1
			C95,60.3,95.4,59.7,95.9,59.7z"/>
		<path class="st13" d="M95.9,80.9h92.4c0.5,0,0.9,0.6,0.9,1.4v13.3c0,0.8-0.4,1.4-0.9,1.4H95.9c-0.5,0-0.9-0.6-0.9-1.4V82.3
			C95,81.5,95.4,80.9,95.9,80.9z"/>
		<path class="st13" d="M95.9,102.1h92.4c0.5,0,0.9,0.6,0.9,1.4v13.3c0,0.8-0.4,1.4-0.9,1.4H95.9c-0.5,0-0.9-0.6-0.9-1.4v-13.3
			C95,102.7,95.4,102.1,95.9,102.1z"/>
		<path class="st13" d="M95.9,123.3h92.4c0.5,0,0.9,0.6,0.9,1.4V138c0,0.8-0.4,1.4-0.9,1.4H95.9c-0.5,0-0.9-0.6-0.9-1.4v-13.3
			C95,124,95.4,123.3,95.9,123.3z"/>
	</g>
</g>
</svg>
