<?xml version="1.0" encoding="utf-8"?>
<!-- Generator: Adobe Illustrator 19.2.1, SVG Export Plug-In . SVG Version: 6.00 Build 0)  -->
<svg version="1.1" id="Layer_1" xmlns="http://www.w3.org/2000/svg" xmlns:xlink="http://www.w3.org/1999/xlink" x="0px" y="0px"
	 viewBox="0 0 251.9 161.5" style="enable-background:new 0 0 251.9 161.5;" xml:space="preserve">
<style type="text/css">
	.st0{fill:#EBF2F6;}
	.st1{fill:#D0D1CF;}
	.st2{fill:#FAFAFA;}
	.st3{fill:#F1F4F7;}
	.st4{fill:#FFFFFF;}
	.st5{fill:#C7C8C8;}
	.st6{fill:#DBDBDB;}
	.st7{fill:#315E90;}
	.st8{fill:#224B72;}
	.st9{fill:#436A9B;}
	.st10{fill:#EBEBEA;}
	.st11{fill:#CB5623;}
	.st12{fill:#E6B43E;}
	.st13{fill:#ACC833;}
	.st14{fill:#A44724;}
	.st15{fill:#9E8028;}
	.st16{fill:#6E8238;}
</style>
<g>
	<g>
		<path class="st0" d="M251.5,161.1H0.4V3.4c0-1.6,1.3-3,3-3h245.1c1.7,0,3,1.4,3,3V161.1z"/>
		<path class="st1" d="M250.3,0.4c0.7,0,1.2,0.6,1.2,1.2v159.5H0.4V1.6C0.4,1,1,0.4,1.6,0.4H250.3 M250.3,0H1.6C0.7,0,0,0.7,0,1.6
			v159.5c0,0.2,0.2,0.4,0.4,0.4h251.1c0.2,0,0.4-0.2,0.4-0.4V1.6C251.9,0.7,251.2,0,250.3,0L250.3,0z"/>
	</g>
	<g>
		<rect x="0.4" y="33.1" class="st2" width="43.3" height="128"/>
		<rect x="0.4" y="33.1" class="st2" width="43.3" height="0.6"/>
		<rect x="43.7" y="11.8" class="st3" width="135.4" height="6.3"/>
		<rect x="43.7" y="18.1" class="st4" width="135.3" height="143"/>
		<rect x="43.7" y="18" class="st5" width="135.3" height="0.3"/>
		<path class="st4" d="M74.2,14.4c-0.1,0-0.2-0.1-0.2-0.2v-0.1c0-0.1,0.1-0.2,0.2-0.2s0.2,0.1,0.2,0.2v0.1
			C74.3,14.3,74.2,14.4,74.2,14.4z"/>
		<path class="st6" d="M174.8,151.1l0.2,5.4H47.9l-0.2-5.4H174.8 M175.1,150.8H47.4l0.2,6h127.7L175.1,150.8L175.1,150.8z"/>
		<rect x="179" y="36.1" class="st4" width="72.5" height="125"/>
		<rect x="0.4" y="11.8" class="st7" width="43.3" height="6.3"/>
		<rect x="179" y="11.8" class="st3" width="72.5" height="6.3"/>
		<rect x="179" y="18.1" class="st2" width="72.5" height="17.9"/>
		<rect x="0.4" y="18.1" class="st3" width="43.3" height="9.5"/>
		<rect x="0.4" y="27.6" class="st4" width="43.3" height="5.5"/>
		<rect x="0.4" y="121.9" class="st4" width="43.3" height="5.6"/>
		<rect x="0.4" y="52.9" class="st2" width="43.3" height="0.6"/>
		<rect x="0.4" y="72.8" class="st2" width="43.3" height="0.6"/>
		<rect x="0.4" y="121.8" class="st5" width="43.3" height="0.3"/>
		<rect x="0.4" y="127.3" class="st5" width="43.3" height="0.3"/>
		<g>
			<path class="st4" d="M249.6,22.1c0,1.3-1,2.3-2.3,2.3h-63.9c-1.3,0-2.3-1-2.3-2.3l0,0c0-1.3,1-2.3,2.3-2.3h63.9
				C248.6,19.8,249.6,20.8,249.6,22.1L249.6,22.1z"/>
			<path class="st1" d="M247.3,24.5h-63.8c-1.3,0-2.4-1.1-2.4-2.4s1.1-2.4,2.4-2.4h63.8c1.3,0,2.4,1.1,2.4,2.4
				S248.7,24.5,247.3,24.5z M183.5,19.9c-1.2,0-2.2,1-2.2,2.2s1,2.2,2.2,2.2h63.8c1.2,0,2.2-1,2.2-2.2s-1-2.2-2.2-2.2H183.5z"/>
		</g>
		<g>
			<path class="st4" d="M203.5,33.1c0,0.3-0.3,0.6-0.6,0.6h-21.1c-0.3,0-0.6-0.3-0.6-0.6v-3c0-0.3,0.3-0.6,0.6-0.6h21.1
				c0.3,0,0.6,0.3,0.6,0.6V33.1z"/>
			<path class="st1" d="M202.9,33.8h-21.1c-0.4,0-0.7-0.3-0.7-0.7v-3c0-0.4,0.3-0.7,0.7-0.7h21.1c0.4,0,0.7,0.3,0.7,0.7v3
				C203.6,33.5,203.3,33.8,202.9,33.8z M181.8,29.6c-0.3,0-0.5,0.2-0.5,0.5v3c0,0.3,0.2,0.5,0.5,0.5h21.1c0.3,0,0.5-0.2,0.5-0.5v-3
				c0-0.3-0.2-0.5-0.5-0.5H181.8z"/>
		</g>
		<g>
			<path class="st4" d="M226.6,33.1c0,0.3-0.3,0.6-0.6,0.6h-21c-0.3,0-0.6-0.3-0.6-0.6v-3c0-0.3,0.3-0.6,0.6-0.6h21
				c0.3,0,0.6,0.3,0.6,0.6V33.1z"/>
			<path class="st1" d="M225.9,33.8h-21c-0.4,0-0.7-0.3-0.7-0.7v-3c0-0.4,0.3-0.7,0.7-0.7h21c0.4,0,0.7,0.3,0.7,0.7v3
				C226.7,33.5,226.3,33.8,225.9,33.8z M205,29.6c-0.3,0-0.5,0.2-0.5,0.5v3c0,0.3,0.2,0.5,0.5,0.5h21c0.3,0,0.5-0.2,0.5-0.5v-3
				c0-0.3-0.2-0.5-0.5-0.5H205z"/>
		</g>
		<g>
			<path class="st4" d="M249.6,33.1c0,0.3-0.3,0.6-0.6,0.6h-21c-0.3,0-0.6-0.3-0.6-0.6v-3c0-0.3,0.3-0.6,0.6-0.6h21
				c0.3,0,0.6,0.3,0.6,0.6V33.1z"/>
			<path class="st1" d="M249,33.8h-21c-0.4,0-0.7-0.3-0.7-0.7v-3c0-0.4,0.3-0.7,0.7-0.7h21c0.4,0,0.7,0.3,0.7,0.7v3
				C249.7,33.5,249.4,33.8,249,33.8z M228,29.6c-0.3,0-0.5,0.2-0.5,0.5v3c0,0.3,0.2,0.5,0.5,0.5h21c0.3,0,0.5-0.2,0.5-0.5v-3
				c0-0.3-0.2-0.5-0.5-0.5H228z"/>
		</g>
		<rect x="179" y="50.6" class="st5" width="72.5" height="0.3"/>
		<rect x="179" y="65.2" class="st5" width="72.5" height="0.3"/>
		<rect x="179" y="79.8" class="st5" width="72.5" height="0.3"/>
		<rect x="179" y="94.4" class="st5" width="72.5" height="0.3"/>
		<rect x="179" y="109.1" class="st5" width="72.5" height="0.3"/>
		<rect x="179" y="123.7" class="st5" width="72.5" height="0.3"/>
		<rect x="179" y="138.3" class="st5" width="72.5" height="0.3"/>
		<rect x="178.9" y="18.1" class="st5" width="0.3" height="143.1"/>
		<path class="st1" d="M192,49.1h-11.4V37.6H192V49.1z M180.8,48.9h11V37.8h-11V48.9z"/>
		<path class="st1" d="M192,63.7h-11.4V52.2H192V63.7z M180.8,63.5h11V52.4h-11V63.5z"/>
		<path class="st1" d="M192,78.3h-11.4V66.8H192V78.3z M180.8,78.1h11V67h-11V78.1z"/>
		<path class="st1" d="M192,92.9h-11.4V81.4H192V92.9z M180.8,92.7h11V81.6h-11V92.7z"/>
		<path class="st1" d="M192,107.5h-11.4V96H192V107.5z M180.8,107.3h11V96.2h-11V107.3z"/>
		<path class="st1" d="M192,122.1h-11.4v-11.5H192V122.1z M191.8,110.8h-11v11.1h11"/>
		<path class="st1" d="M192,136.7h-11.4v-11.5H192V136.7z M180.8,136.5h11v-11.1h-11V136.5z"/>
		<circle class="st5" cx="215.3" cy="143.8" r="1.2"/>
		<rect x="179" y="35.9" class="st5" width="72.5" height="0.3"/>
		<rect x="0.4" y="4.2" class="st8" width="251.1" height="7.6"/>
		<path class="st9" d="M246.5,10.7c-1.5,0-2.7-1.2-2.7-2.7s1.2-2.7,2.7-2.7c1.5,0,2.7,1.2,2.7,2.7S248,10.7,246.5,10.7z M246.5,5.6
			c-1.3,0-2.3,1-2.3,2.3c0,1.3,1,2.3,2.3,2.3c1.3,0,2.3-1,2.3-2.3C248.9,6.6,247.8,5.6,246.5,5.6z"/>
		<path class="st9" d="M239.5,10.7c-1.5,0-2.7-1.2-2.7-2.7s1.2-2.7,2.7-2.7c1.5,0,2.7,1.2,2.7,2.7S241,10.7,239.5,10.7z M239.5,5.6
			c-1.3,0-2.3,1-2.3,2.3c0,1.3,1,2.3,2.3,2.3s2.3-1,2.3-2.3C241.8,6.6,240.8,5.6,239.5,5.6z"/>
		<path class="st9" d="M232.4,10.7c-1.5,0-2.7-1.2-2.7-2.7s1.2-2.7,2.7-2.7s2.7,1.2,2.7,2.7S233.9,10.7,232.4,10.7z M232.4,5.6
			c-1.3,0-2.3,1-2.3,2.3c0,1.3,1,2.3,2.3,2.3s2.3-1,2.3-2.3C234.8,6.6,233.7,5.6,232.4,5.6z"/>
		<path class="st9" d="M225.4,10.7c-1.5,0-2.7-1.2-2.7-2.7s1.2-2.7,2.7-2.7s2.7,1.2,2.7,2.7S226.9,10.7,225.4,10.7z M225.4,5.6
			c-1.3,0-2.3,1-2.3,2.3c0,1.3,1,2.3,2.3,2.3s2.3-1,2.3-2.3C227.7,6.6,226.7,5.6,225.4,5.6z"/>
		<rect x="0.4" y="27.5" class="st5" width="43.3" height="0.3"/>
		<rect x="0.4" y="33" class="st5" width="43.3" height="0.3"/>
		<rect x="43.6" y="18.1" class="st5" width="0.3" height="143"/>
		<rect x="179" y="18" class="st5" width="72.5" height="0.3"/>
		<path class="st10" d="M0.4,4.2V1.4c0-0.5,0.4-0.9,0.9-0.9h249.2c0.5,0,0.9,0.4,0.9,0.9v2.9H0.4z"/>
		<circle class="st11" cx="2.7" cy="2.4" r="1"/>
		<circle class="st12" cx="5.8" cy="2.4" r="1"/>
		<circle class="st13" cx="8.8" cy="2.4" r="1"/>
		<path class="st14" d="M2.3,2.9c-0.1,0-0.1,0-0.1-0.1c-0.1-0.1-0.1-0.2,0-0.3l0.8-0.8c0.1-0.1,0.2-0.1,0.3,0c0.1,0.1,0.1,0.2,0,0.3
			L2.4,2.9C2.4,2.9,2.3,2.9,2.3,2.9z"/>
		<path class="st14" d="M3,2.9c-0.1,0-0.1,0-0.1-0.1L2.1,2.1c-0.1-0.1-0.1-0.2,0-0.3s0.2-0.1,0.3,0l0.8,0.8c0.1,0.1,0.1,0.2,0,0.3
			C3.1,2.9,3.1,2.9,3,2.9z"/>
		<path class="st15" d="M6.3,2.6H5.2C5.1,2.6,5,2.5,5,2.4c0-0.1,0.1-0.2,0.2-0.2h1.1c0.1,0,0.2,0.1,0.2,0.2C6.5,2.5,6.4,2.6,6.3,2.6
			z"/>
		<path class="st16" d="M8.6,1.9C8.6,1.9,8.6,1.9,8.6,1.9l0.6-0.1c0,0,0.1,0,0.1,0.1v0.6c0,0,0,0-0.1,0L8.6,1.9z"/>
		<path class="st16" d="M9,2.8C9,2.8,9,2.9,9,2.8L8.4,2.9c0,0-0.1,0-0.1-0.1V2.2c0,0,0,0,0.1,0L9,2.8z"/>
	</g>
	<g>
		<g>
			<circle class="st0" cx="53.2" cy="28.6" r="3.8"/>
			<g>
				<path class="st0" d="M108.7,27.5H60.9c-0.4,0-0.7-0.3-0.7-0.7v0c0-0.4,0.3-0.7,0.7-0.7h47.8c0.4,0,0.7,0.3,0.7,0.7v0
					C109.4,27.2,109,27.5,108.7,27.5z"/>
				<path class="st0" d="M145.7,31.1H60.9c-0.4,0-0.7-0.3-0.7-0.7l0,0c0-0.4,0.3-0.7,0.7-0.7h84.8c0.4,0,0.7,0.3,0.7,0.7l0,0
					C146.4,30.8,146.1,31.1,145.7,31.1z"/>
			</g>
		</g>
		<g>
			<circle class="st0" cx="53.2" cy="112.6" r="3.8"/>
			<g>
				<path class="st0" d="M108.7,111.6H60.9c-0.4,0-0.7-0.3-0.7-0.7l0,0c0-0.4,0.3-0.7,0.7-0.7h47.8c0.4,0,0.7,0.3,0.7,0.7l0,0
					C109.4,111.3,109,111.6,108.7,111.6z"/>
				<path class="st0" d="M130.2,115.1H60.9c-0.4,0-0.7-0.3-0.7-0.7l0,0c0-0.4,0.3-0.7,0.7-0.7h69.3c0.4,0,0.7,0.3,0.7,0.7l0,0
					C130.9,114.8,130.6,115.1,130.2,115.1z"/>
			</g>
		</g>
		<g>
			<circle class="st0" cx="53.2" cy="56.6" r="3.8"/>
			<g>
				<path class="st0" d="M108.7,55.5H60.9c-0.4,0-0.7-0.3-0.7-0.7v0c0-0.4,0.3-0.7,0.7-0.7h47.8c0.4,0,0.7,0.3,0.7,0.7l0,0
					C109.4,55.2,109,55.5,108.7,55.5z"/>
				<path class="st0" d="M145.7,59.1H60.9c-0.4,0-0.7-0.3-0.7-0.7v0c0-0.4,0.3-0.7,0.7-0.7h84.8c0.4,0,0.7,0.3,0.7,0.7v0
					C146.4,58.8,146.1,59.1,145.7,59.1z"/>
			</g>
		</g>
		<g>
			<circle class="st0" cx="53.2" cy="98.6" r="3.8"/>
			<g>
				<path class="st0" d="M124.1,97.6H60.9c-0.4,0-0.7-0.3-0.7-0.7l0,0c0-0.4,0.3-0.7,0.7-0.7h63.2c0.4,0,0.7,0.3,0.7,0.7l0,0
					C124.8,97.2,124.5,97.6,124.1,97.6z"/>
				<path class="st0" d="M145.7,101.1H60.9c-0.4,0-0.7-0.3-0.7-0.7l0,0c0-0.4,0.3-0.7,0.7-0.7h84.8c0.4,0,0.7,0.3,0.7,0.7l0,0
					C146.4,100.8,146.1,101.1,145.7,101.1z"/>
			</g>
		</g>
		<g>
			<circle class="st0" cx="53.2" cy="126.7" r="3.8"/>
			<g>
				<path class="st0" d="M152.2,125.6H60.9c-0.4,0-0.7-0.3-0.7-0.7v0c0-0.4,0.3-0.7,0.7-0.7h91.2c0.4,0,0.7,0.3,0.7,0.7v0
					C152.9,125.3,152.5,125.6,152.2,125.6z"/>
				<path class="st0" d="M145.7,129.1H60.9c-0.4,0-0.7-0.3-0.7-0.7l0,0c0-0.4,0.3-0.7,0.7-0.7h84.8c0.4,0,0.7,0.3,0.7,0.7l0,0
					C146.4,128.8,146.1,129.1,145.7,129.1z"/>
			</g>
		</g>
		<g>
			<circle class="st0" cx="53.2" cy="42.6" r="3.8"/>
			<g>
				<path class="st0" d="M111,41.5H60.9c-0.4,0-0.7-0.3-0.7-0.7v0c0-0.4,0.3-0.7,0.7-0.7H111c0.4,0,0.7,0.3,0.7,0.7v0
					C111.7,41.2,111.3,41.5,111,41.5z"/>
				<path class="st0" d="M93.5,45.1H60.9c-0.4,0-0.7-0.3-0.7-0.7v0c0-0.4,0.3-0.7,0.7-0.7h32.6c0.4,0,0.7,0.3,0.7,0.7v0
					C94.2,44.8,93.9,45.1,93.5,45.1z"/>
			</g>
		</g>
		<g>
			<circle class="st0" cx="53.2" cy="70.6" r="3.8"/>
			<g>
				<path class="st0" d="M162.9,69.5h-102c-0.4,0-0.7-0.3-0.7-0.7v0c0-0.4,0.3-0.7,0.7-0.7h102c0.4,0,0.7,0.3,0.7,0.7v0
					C163.6,69.2,163.3,69.5,162.9,69.5z"/>
				<path class="st0" d="M145.7,73.1H60.9c-0.4,0-0.7-0.3-0.7-0.7v0c0-0.4,0.3-0.7,0.7-0.7h84.8c0.4,0,0.7,0.3,0.7,0.7v0
					C146.4,72.8,146.1,73.1,145.7,73.1z"/>
			</g>
		</g>
		<g>
			<circle class="st0" cx="53.2" cy="84.6" r="3.8"/>
			<g>
				<path class="st0" d="M93.5,83.5H60.9c-0.4,0-0.7-0.3-0.7-0.7l0,0c0-0.4,0.3-0.7,0.7-0.7h32.6c0.4,0,0.7,0.3,0.7,0.7l0,0
					C94.2,83.2,93.9,83.5,93.5,83.5z"/>
				<path class="st0" d="M134.1,87.1H60.9c-0.4,0-0.7-0.3-0.7-0.7v0c0-0.4,0.3-0.7,0.7-0.7h73.2c0.4,0,0.7,0.3,0.7,0.7v0
					C134.8,86.8,134.4,87.1,134.1,87.1z"/>
			</g>
		</g>
		<g>
			<circle class="st0" cx="53.2" cy="140.7" r="3.8"/>
			<g>
				<path class="st0" d="M106,139.5H60.9c-0.4,0-0.7-0.3-0.7-0.7l0,0c0-0.4,0.3-0.7,0.7-0.7H106c0.4,0,0.7,0.3,0.7,0.7l0,0
					C106.7,139.2,106.4,139.5,106,139.5z"/>
				<path class="st0" d="M93.5,143.2H60.9c-0.4,0-0.7-0.3-0.7-0.7l0,0c0-0.4,0.3-0.7,0.7-0.7h32.6c0.4,0,0.7,0.3,0.7,0.7l0,0
					C94.2,142.9,93.9,143.2,93.5,143.2z"/>
			</g>
		</g>
	</g>
</g>
</svg>
