<?xml version="1.0" encoding="utf-8"?>
<!-- Generator: Adobe Illustrator 19.2.1, SVG Export Plug-In . SVG Version: 6.00 Build 0)  -->
<svg version="1.1" id="Layer_1" xmlns="http://www.w3.org/2000/svg" xmlns:xlink="http://www.w3.org/1999/xlink" x="0px" y="0px"
	 viewBox="0 0 251.9 161.5" style="enable-background:new 0 0 251.9 161.5;" xml:space="preserve">
<style type="text/css">
	.st0{fill:#FFFFFF;}
	.st1{fill:#D0D1CF;}
	.st2{fill:#EBF2F6;}
	.st3{fill:#EBEBEA;}
	.st4{fill:#CB5623;}
	.st5{fill:#E6B43E;}
	.st6{fill:#ACC833;}
	.st7{fill:#A44724;}
	.st8{fill:#9E8028;}
	.st9{fill:#6E8238;}
	.st10{fill:#224B72;}
	.st11{fill:#C7C8C8;}
	.st12{opacity:0.2;}
	.st13{fill:#FFFFFF;stroke:#C7C8C8;stroke-width:0.5;stroke-miterlimit:10;}
</style>
<title>layout_landing</title>
<g>
	<g>
		<path class="st0" d="M251.5,161.1H0.4V3.4c0-1.6,1.3-3,3-3h245.1c1.7,0,3,1.4,3,3V161.1z"/>
		<path class="st1" d="M250.3,0.4c0.7,0,1.2,0.6,1.2,1.2v159.5H0.4V1.6C0.4,1,1,0.4,1.6,0.4H250.3 M250.3,0H1.6C0.7,0,0,0.7,0,1.6
			v159.5c0,0.2,0.2,0.4,0.4,0.4h251.1c0.2,0,0.4-0.2,0.4-0.4V1.6C251.9,0.7,251.2,0,250.3,0L250.3,0z"/>
	</g>
	<g>
		<rect x="0.4" y="11.8" class="st2" width="251.1" height="74.6"/>
		<path class="st3" d="M0.4,4.2V1.4c0-0.5,0.4-0.9,0.9-0.9h249.2c0.5,0,0.9,0.4,0.9,0.9v2.9H0.4z"/>
		<circle class="st4" cx="2.7" cy="2.4" r="1"/>
		<circle class="st5" cx="5.8" cy="2.4" r="1"/>
		<circle class="st6" cx="8.8" cy="2.4" r="1"/>
		<path class="st7" d="M2.3,2.9c-0.1,0-0.1,0-0.1-0.1c-0.1-0.1-0.1-0.2,0-0.3l0.8-0.8c0.1-0.1,0.2-0.1,0.3,0c0.1,0.1,0.1,0.2,0,0.3
			L2.4,2.9C2.4,2.9,2.3,2.9,2.3,2.9z"/>
		<path class="st7" d="M3,2.9c-0.1,0-0.1,0-0.1-0.1L2.1,2.1c-0.1-0.1-0.1-0.2,0-0.3s0.2-0.1,0.3,0l0.8,0.8c0.1,0.1,0.1,0.2,0,0.3
			C3.1,2.9,3.1,2.9,3,2.9z"/>
		<path class="st8" d="M6.3,2.6H5.2C5.1,2.6,5,2.5,5,2.4c0-0.1,0.1-0.2,0.2-0.2h1.1c0.1,0,0.2,0.1,0.2,0.2C6.5,2.5,6.4,2.6,6.3,2.6z
			"/>
		<path class="st9" d="M8.6,1.9C8.6,1.9,8.6,1.9,8.6,1.9l0.6-0.1c0,0,0.1,0,0.1,0.1v0.6c0,0,0,0-0.1,0L8.6,1.9z"/>
		<path class="st9" d="M9,2.8C9,2.8,9,2.9,9,2.8L8.4,2.9c0,0-0.1,0-0.1-0.1V2.2c0,0,0,0,0.1,0L9,2.8z"/>
		<rect x="0.4" y="4.2" class="st10" width="251.1" height="7.6"/>
		<rect x="0.4" y="86.3" class="st11" width="251.5" height="0.2"/>
	</g>
	<g>
		<g>
			<path class="st2" d="M171.5,109h-30.4c-0.3,0-0.6-0.3-0.6-0.6l0,0c0-0.3,0.3-0.6,0.6-0.6h30.4c0.3,0,0.6,0.3,0.6,0.6l0,0
				C172.1,108.7,171.9,109,171.5,109z"/>
			<path class="st2" d="M183.4,114.3h-54.1c-0.3,0-0.6-0.3-0.6-0.6l0,0c0-0.3,0.3-0.6,0.6-0.6h54.1c0.3,0,0.6,0.3,0.6,0.6l0,0
				C184,114,183.7,114.3,183.4,114.3z"/>
			<path class="st2" d="M183.4,119.6h-54.1c-0.3,0-0.6-0.3-0.6-0.6v0c0-0.3,0.3-0.6,0.6-0.6h54.1c0.3,0,0.6,0.3,0.6,0.6v0
				C184,119.3,183.7,119.6,183.4,119.6z"/>
			<path class="st2" d="M183.4,124.9h-54.1c-0.3,0-0.6-0.3-0.6-0.6l0,0c0-0.3,0.3-0.6,0.6-0.6h54.1c0.3,0,0.6,0.3,0.6,0.6l0,0
				C184,124.7,183.7,124.9,183.4,124.9z"/>
			<path class="st2" d="M183.4,130.2h-54.1c-0.3,0-0.6-0.3-0.6-0.6v0c0-0.3,0.3-0.6,0.6-0.6h54.1c0.3,0,0.6,0.3,0.6,0.6v0
				C184,130,183.7,130.2,183.4,130.2z"/>
			<path class="st2" d="M183.4,135.6h-54.1c-0.3,0-0.6-0.3-0.6-0.6l0,0c0-0.3,0.3-0.6,0.6-0.6h54.1c0.3,0,0.6,0.3,0.6,0.6l0,0
				C184,135.3,183.7,135.6,183.4,135.6z"/>
			<path class="st2" d="M183.4,140.9h-54.1c-0.3,0-0.6-0.3-0.6-0.6l0,0c0-0.3,0.3-0.6,0.6-0.6h54.1c0.3,0,0.6,0.3,0.6,0.6l0,0
				C184,140.6,183.7,140.9,183.4,140.9z"/>
		</g>
	</g>
	<g class="st12">
		<g>
			<path class="st10" d="M173.3,53.6H78.6c-0.3,0-0.6-0.3-0.6-0.6l0,0c0-0.3,0.3-0.6,0.6-0.6h94.7c0.3,0,0.6,0.3,0.6,0.6l0,0
				C173.9,53.4,173.6,53.6,173.3,53.6z"/>
			<path class="st10" d="M153,46.7H98.9c-0.3,0-0.6-0.3-0.6-0.6l0,0c0-0.3,0.3-0.6,0.6-0.6H153c0.3,0,0.6,0.3,0.6,0.6l0,0
				C153.6,46.5,153.3,46.7,153,46.7z"/>
		</g>
	</g>
	<path class="st13" d="M72.9,105.9h44.8c0.2,0,0.4,0.3,0.4,0.7v35.5c0,0.4-0.2,0.7-0.4,0.7H72.9c-0.2,0-0.4-0.3-0.4-0.7v-35.5
		C72.4,106.2,72.6,105.9,72.9,105.9z"/>
	<rect x="197.8" y="86.8" class="st11" width="0.2" height="74.4"/>
	<rect x="56.2" y="86.8" class="st11" width="0.2" height="74.4"/>
</g>
</svg>
