<?xml version="1.0" encoding="utf-8"?>
<!-- Generator: Adobe Illustrator 19.2.1, SVG Export Plug-In . SVG Version: 6.00 Build 0)  -->
<svg version="1.1" id="Layer_1" xmlns="http://www.w3.org/2000/svg" xmlns:xlink="http://www.w3.org/1999/xlink" x="0px" y="0px"
	 viewBox="0 0 251.9 161.5" style="enable-background:new 0 0 251.9 161.5;" xml:space="preserve">
<style type="text/css">
	.st0{fill:#FAFAFA;}
	.st1{fill:#D0D1CF;}
	.st2{fill:#FFFFFF;stroke:#C7C8C8;stroke-width:0.35;stroke-miterlimit:10;}
	.st3{fill:#FFFFFF;}
	.st4{fill:#224B72;}
	.st5{fill:#EBEBEA;}
	.st6{fill:#CB5623;}
	.st7{fill:#E6B43E;}
	.st8{fill:#ACC833;}
	.st9{fill:#A44724;}
	.st10{fill:#9E8028;}
	.st11{fill:#6E8238;}
	.st12{fill:#C7C8C8;}
	.st13{fill:#EBF2F6;}
</style>
<g>
	<g>
		<path class="st0" d="M251.5,161.1H0.4V3.4c0-1.6,1.3-3,3-3h245.1c1.7,0,3,1.4,3,3V161.1z"/>
		<path class="st1" d="M250.3,0.4c0.7,0,1.2,0.6,1.2,1.2v159.5H0.4V1.6C0.4,1,1,0.4,1.6,0.4H250.3 M250.3,0H1.6C0.7,0,0,0.7,0,1.6
			v159.5c0,0.2,0.2,0.4,0.4,0.4h251.1c0.2,0,0.4-0.2,0.4-0.4V1.6C251.9,0.7,251.2,0,250.3,0L250.3,0z"/>
	</g>
	<g>
		<path class="st2" d="M55.6,27.7h140.8c0.8,0,1.4,0.6,1.4,1.4v13.3c0,0.8-0.6,1.4-1.4,1.4H55.6c-0.8,0-1.4-0.6-1.4-1.4V29.1
			C54.2,28.3,54.8,27.7,55.6,27.7z"/>
		<path class="st2" d="M55.6,47.3h140.8c0.8,0,1.4,0.6,1.4,1.4V62c0,0.8-0.6,1.4-1.4,1.4H55.6c-0.8,0-1.4-0.6-1.4-1.4V48.7
			C54.2,48,54.8,47.3,55.6,47.3z"/>
		<path class="st2" d="M55.6,67h140.8c0.8,0,1.4,0.6,1.4,1.4v13.3c0,0.8-0.6,1.4-1.4,1.4H55.6c-0.8,0-1.4-0.6-1.4-1.4V68.4
			C54.2,67.6,54.8,67,55.6,67z"/>
		<path class="st2" d="M55.6,86.6h140.8c0.8,0,1.4,0.6,1.4,1.4v13.3c0,0.8-0.6,1.4-1.4,1.4H55.6c-0.8,0-1.4-0.6-1.4-1.4V88
			C54.2,87.2,54.8,86.6,55.6,86.6z"/>
		<path class="st2" d="M55.6,106.2h140.8c0.8,0,1.4,0.6,1.4,1.4v13.3c0,0.8-0.6,1.4-1.4,1.4H55.6c-0.8,0-1.4-0.6-1.4-1.4v-13.3
			C54.2,106.8,54.8,106.2,55.6,106.2z"/>
		<path class="st2" d="M55.6,125.8h140.8c0.8,0,1.4,0.6,1.4,1.4v13.3c0,0.8-0.6,1.4-1.4,1.4H55.6c-0.8,0-1.4-0.6-1.4-1.4v-13.3
			C54.2,126.4,54.8,125.8,55.6,125.8z"/>
		<path class="st3" d="M74.2,14.4c-0.1,0-0.2-0.1-0.2-0.2v-0.1c0-0.1,0.1-0.2,0.2-0.2s0.2,0.1,0.2,0.2v0.1
			C74.3,14.3,74.2,14.4,74.2,14.4z"/>
		<rect x="0.4" y="4.2" class="st4" width="251.1" height="7.6"/>
		<path class="st5" d="M0.4,4.2V1.4c0-0.5,0.4-0.9,0.9-0.9h249.2c0.5,0,0.9,0.4,0.9,0.9v2.9H0.4z"/>
		<circle class="st6" cx="2.7" cy="2.4" r="1"/>
		<circle class="st7" cx="5.8" cy="2.4" r="1"/>
		<circle class="st8" cx="8.8" cy="2.4" r="1"/>
		<path class="st9" d="M2.3,2.9c-0.1,0-0.1,0-0.1-0.1c-0.1-0.1-0.1-0.2,0-0.3l0.8-0.8c0.1-0.1,0.2-0.1,0.3,0c0.1,0.1,0.1,0.2,0,0.3
			L2.4,2.9C2.4,2.9,2.3,2.9,2.3,2.9z"/>
		<path class="st9" d="M3,2.9c-0.1,0-0.1,0-0.1-0.1L2.1,2.1c-0.1-0.1-0.1-0.2,0-0.3s0.2-0.1,0.3,0l0.8,0.8c0.1,0.1,0.1,0.2,0,0.3
			C3.1,2.9,3.1,2.9,3,2.9z"/>
		<path class="st10" d="M6.3,2.6H5.2C5.1,2.6,5,2.5,5,2.4c0-0.1,0.1-0.2,0.2-0.2h1.1c0.1,0,0.2,0.1,0.2,0.2C6.5,2.5,6.4,2.6,6.3,2.6
			z"/>
		<path class="st11" d="M8.6,1.9C8.6,1.9,8.6,1.9,8.6,1.9l0.6-0.1c0,0,0.1,0,0.1,0.1v0.6c0,0,0,0-0.1,0L8.6,1.9z"/>
		<path class="st11" d="M9,2.8C9,2.8,9,2.9,9,2.8L8.4,2.9c0,0-0.1,0-0.1-0.1V2.2c0,0,0,0,0.1,0L9,2.8z"/>
		<rect x="0.4" y="12.1" class="st3" width="251.1" height="11.1"/>
		<rect x="0" y="23" class="st12" width="251.5" height="0.3"/>
		<circle class="st12" cx="125.9" cy="148.6" r="1.2"/>
		<g>
			<circle class="st13" cx="64.3" cy="35.8" r="3.8"/>
			<g>
				<path class="st13" d="M88.7,34.6H72c-0.4,0-0.7-0.3-0.7-0.7v0c0-0.4,0.3-0.7,0.7-0.7h16.7c0.4,0,0.7,0.3,0.7,0.7v0
					C89.4,34.3,89.1,34.6,88.7,34.6z"/>
				<path class="st13" d="M135.2,38.3H72c-0.4,0-0.7-0.3-0.7-0.7l0,0c0-0.4,0.3-0.7,0.7-0.7h63.2c0.4,0,0.7,0.3,0.7,0.7l0,0
					C135.9,38,135.6,38.3,135.2,38.3z"/>
			</g>
		</g>
		<g>
			<circle class="st13" cx="64.3" cy="55.4" r="3.8"/>
			<g>
				<path class="st13" d="M88.7,54.3H72c-0.4,0-0.7-0.3-0.7-0.7v0c0-0.4,0.3-0.7,0.7-0.7h16.7c0.4,0,0.7,0.3,0.7,0.7v0
					C89.4,53.9,89.1,54.3,88.7,54.3z"/>
				<path class="st13" d="M135.2,57.9H72c-0.4,0-0.7-0.3-0.7-0.7l0,0c0-0.4,0.3-0.7,0.7-0.7h63.2c0.4,0,0.7,0.3,0.7,0.7l0,0
					C135.9,57.6,135.6,57.9,135.2,57.9z"/>
			</g>
		</g>
		<g>
			<circle class="st13" cx="64.3" cy="75" r="3.8"/>
			<g>
				<path class="st13" d="M88.7,73.9H72c-0.4,0-0.7-0.3-0.7-0.7v0c0-0.4,0.3-0.7,0.7-0.7h16.7c0.4,0,0.7,0.3,0.7,0.7v0
					C89.4,73.6,89.1,73.9,88.7,73.9z"/>
				<path class="st13" d="M135.2,77.5H72c-0.4,0-0.7-0.3-0.7-0.7l0,0c0-0.4,0.3-0.7,0.7-0.7h63.2c0.4,0,0.7,0.3,0.7,0.7l0,0
					C135.9,77.2,135.6,77.5,135.2,77.5z"/>
			</g>
		</g>
		<g>
			<circle class="st13" cx="64.3" cy="94.6" r="3.8"/>
			<g>
				<path class="st13" d="M88.7,93.5H72c-0.4,0-0.7-0.3-0.7-0.7v0c0-0.4,0.3-0.7,0.7-0.7h16.7c0.4,0,0.7,0.3,0.7,0.7v0
					C89.4,93.2,89.1,93.5,88.7,93.5z"/>
				<path class="st13" d="M135.2,97.1H72c-0.4,0-0.7-0.3-0.7-0.7l0,0c0-0.4,0.3-0.7,0.7-0.7h63.2c0.4,0,0.7,0.3,0.7,0.7l0,0
					C135.9,96.8,135.6,97.1,135.2,97.1z"/>
			</g>
		</g>
		<g>
			<circle class="st13" cx="64.3" cy="114.2" r="3.8"/>
			<g>
				<path class="st13" d="M88.7,113.1H72c-0.4,0-0.7-0.3-0.7-0.7l0,0c0-0.4,0.3-0.7,0.7-0.7h16.7c0.4,0,0.7,0.3,0.7,0.7l0,0
					C89.4,112.8,89.1,113.1,88.7,113.1z"/>
				<path class="st13" d="M135.2,116.8H72c-0.4,0-0.7-0.3-0.7-0.7l0,0c0-0.4,0.3-0.7,0.7-0.7h63.2c0.4,0,0.7,0.3,0.7,0.7l0,0
					C135.9,116.4,135.6,116.8,135.2,116.8z"/>
			</g>
		</g>
		<g>
			<circle class="st13" cx="64.3" cy="133.9" r="3.8"/>
			<g>
				<path class="st13" d="M88.7,132.7H72c-0.4,0-0.7-0.3-0.7-0.7l0,0c0-0.4,0.3-0.7,0.7-0.7h16.7c0.4,0,0.7,0.3,0.7,0.7l0,0
					C89.4,132.4,89.1,132.7,88.7,132.7z"/>
				<path class="st13" d="M135.2,136.4H72c-0.4,0-0.7-0.3-0.7-0.7l0,0c0-0.4,0.3-0.7,0.7-0.7h63.2c0.4,0,0.7,0.3,0.7,0.7l0,0
					C135.9,136.1,135.6,136.4,135.2,136.4z"/>
			</g>
		</g>
	</g>
</g>
</svg>
